STARTFONT 2.1
COMMENT UpperCaseHex
FONT MyFont_4x7_HEX
SIZE 7 96 96
FONTBOUNDINGBOX 5 6 0 0
STARTPROPERTIES 6
COPYRIGHT "VickyHung"
RESOLUTION_X 96
RESOLUTION_Y 96
FONT_ASCENT 7
FONT_DESCENT 0
DEFAULT_CHAR 0
ENDPROPERTIES
CHARS 28
STARTCHAR 043
ENCODING 43
SWIDTH 360 0
DWIDTH 5 0
BBX 3 3 1 2
BITMAP
40
E0
40
ENDCHAR
STARTCHAR 044
ENCODING 44
SWIDTH 360 0
DWIDTH 5 0
BBX 2 2 1 0
BITMAP
40
80
ENDCHAR
STARTCHAR 045
ENCODING 45
SWIDTH 360 0
DWIDTH 5 0
BBX 4 1 0 3
BITMAP
F0
ENDCHAR
STARTCHAR 046
ENCODING 46
SWIDTH 360 0
DWIDTH 5 0
BBX 1 1 1 0
BITMAP
80
ENDCHAR
STARTCHAR 047
ENCODING 47
SWIDTH 360 0
DWIDTH 5 0
BBX 4 7 0 0
BITMAP
10
20
20
40
40
80
80
ENDCHAR
STARTCHAR 048
ENCODING 48
SWIDTH 360 0
DWIDTH 5 0
BBX 4 7 0 0
BITMAP
60
90
90
90
90
90
60
ENDCHAR
STARTCHAR 049
ENCODING 49
SWIDTH 360 0
DWIDTH 5 0
BBX 3 7 1 0
BITMAP
40
C0
40
40
40
40
E0
ENDCHAR
STARTCHAR 050
ENCODING 50
SWIDTH 360 0
DWIDTH 5 0
BBX 4 7 0 0
BITMAP
60
90
10
20
40
80
F0
ENDCHAR
STARTCHAR 051
ENCODING 51
SWIDTH 360 0
DWIDTH 5 0
BBX 4 7 0 0
BITMAP
60
90
10
60
10
90
60
ENDCHAR
STARTCHAR 052
ENCODING 52
SWIDTH 360 0
DWIDTH 5 0
BBX 4 7 0 0
BITMAP
80
A0
A0
A0
F0
20
20
ENDCHAR
STARTCHAR 053
ENCODING 53
SWIDTH 360 0
DWIDTH 5 0
BBX 4 7 0 0
BITMAP
F0
80
E0
10
10
90
60
ENDCHAR
STARTCHAR 054
ENCODING 54
SWIDTH 360 0
DWIDTH 5 0
BBX 4 7 0 0
BITMAP
60
90
80
E0
90
90
60
ENDCHAR
STARTCHAR 055
ENCODING 55
SWIDTH 360 0
DWIDTH 5 0
BBX 4 7 0 0
BITMAP
F0
90
10
20
40
40
40
ENDCHAR
STARTCHAR 056
ENCODING 56
SWIDTH 360 0
DWIDTH 5 0
BBX 4 7 0 0
BITMAP
60
90
90
60
90
90
60
ENDCHAR
STARTCHAR 057
ENCODING 57
SWIDTH 360 0
DWIDTH 5 0
BBX 4 7 0 0
BITMAP
60
90
90
70
10
90
60
ENDCHAR
STARTCHAR 058
ENCODING 58
SWIDTH 360 0
DWIDTH 5 0
BBX 1 5 1 1
BITMAP
80
00
00
00
80
ENDCHAR
STARTCHAR 059
ENCODING 59
SWIDTH 360 0
DWIDTH 5 0
BBX 2 5 1 1
BITMAP
40
00
00
40
80
ENDCHAR
STARTCHAR 060
ENCODING 60
SWIDTH 360 0
DWIDTH 5 0
BBX 4 7 0 0
BITMAP
10
20
40
80
40
20
10
ENDCHAR
STARTCHAR 061
ENCODING 61
SWIDTH 360 0
DWIDTH 5 0
BBX 4 3 0 2
BITMAP
F0
00
F0
ENDCHAR
STARTCHAR 062
ENCODING 62
SWIDTH 360 0
DWIDTH 5 0
BBX 4 7 0 0
BITMAP
80
40
20
10
20
40
80
ENDCHAR
STARTCHAR 063
ENCODING 63
SWIDTH 360 0
DWIDTH 5 0
BBX 4 7 0 0
BITMAP
60
90
10
20
20
00
20
ENDCHAR
STARTCHAR 064
ENCODING 64
SWIDTH 360 0
DWIDTH 5 0
BBX 0 0 0 0
BITMAP
ENDCHAR
STARTCHAR 065
ENCODING 65
SWIDTH 360 0
DWIDTH 5 0
BBX 4 7 0 0
BITMAP
60
90
90
F0
90
90
90
ENDCHAR
STARTCHAR 066
ENCODING 66
SWIDTH 360 0
DWIDTH 5 0
BBX 4 7 0 0
BITMAP
E0
90
90
E0
90
90
E0
ENDCHAR
STARTCHAR 067
ENCODING 67
SWIDTH 360 0
DWIDTH 5 0
BBX 4 7 0 0
BITMAP
60
90
80
80
80
90
60
ENDCHAR
STARTCHAR 068
ENCODING 68
SWIDTH 360 0
DWIDTH 5 0
BBX 4 7 0 0
BITMAP
E0
90
90
90
90
90
E0
ENDCHAR
STARTCHAR 069
ENCODING 69
SWIDTH 360 0
DWIDTH 5 0
BBX 4 7 0 0
BITMAP
F0
80
80
E0
80
80
F0
ENDCHAR
STARTCHAR 070
ENCODING 70
SWIDTH 360 0
DWIDTH 5 0
BBX 4 7 0 0
BITMAP
F0
80
80
E0
80
80
80
ENDCHAR
ENDFONT
